<svg id="svg" xmlns="http://www.w3.org/2000/svg" xmlns:xlink="http://www.w3.org/1999/xlink" width="400" height="400" viewBox="0, 0, 400,400"><g id="svgg"><path id="path0" d="M318.313 65.991 C 316.371 67.460,317.756 67.477,320.313 66.016 C 321.564 65.300,321.828 64.889,321.048 64.871 C 320.378 64.856,319.147 65.360,318.313 65.991 M319.922 68.063 C 316.484 69.371,311.387 71.344,308.594 72.447 C 305.801 73.551,302.725 74.405,301.758 74.345 C 300.789 74.285,300.000 74.688,300.000 75.242 C 300.000 76.287,295.825 78.125,293.453 78.125 C 292.706 78.125,292.310 78.473,292.573 78.897 C 292.837 79.325,292.554 79.479,291.938 79.243 C 291.327 79.008,290.633 79.321,290.396 79.938 C 290.113 80.675,289.076 80.978,287.366 80.822 C 285.936 80.692,285.185 80.757,285.698 80.968 C 286.211 81.179,286.437 81.856,286.201 82.472 C 285.634 83.949,284.375 83.914,284.375 82.422 C 284.375 81.777,284.023 81.250,283.594 81.250 C 281.834 81.250,282.982 79.865,285.290 79.203 C 288.286 78.344,289.490 76.125,286.625 76.742 C 285.603 76.962,284.150 77.401,283.398 77.717 C 282.425 78.127,282.031 77.930,282.031 77.037 C 282.031 76.326,282.673 75.781,283.510 75.781 C 284.324 75.781,285.191 75.254,285.439 74.609 C 285.979 73.202,285.051 73.074,283.750 74.375 C 283.234 74.891,282.813 75.054,282.813 74.738 C 282.813 74.422,282.161 74.512,281.365 74.939 C 280.101 75.615,279.965 75.462,280.296 73.731 L 280.675 71.748 275.689 74.248 C 270.022 77.089,269.889 77.180,270.500 77.792 C 270.747 78.039,272.032 77.680,273.357 76.995 C 274.681 76.310,276.032 75.722,276.359 75.687 C 276.686 75.653,276.865 75.309,276.758 74.922 C 276.650 74.535,277.090 74.219,277.734 74.219 C 278.379 74.219,278.906 74.436,278.906 74.702 C 278.906 75.803,273.705 79.663,272.207 79.675 C 271.315 79.682,268.552 81.267,266.067 83.196 C 263.581 85.126,261.217 86.501,260.812 86.251 C 260.407 86.000,259.294 86.619,258.339 87.624 C 256.074 90.009,253.455 92.050,254.152 90.887 C 254.452 90.387,254.256 89.799,253.716 89.582 C 253.124 89.343,253.277 89.161,254.102 89.124 C 254.854 89.090,255.480 88.799,255.493 88.477 C 255.550 87.121,259.883 84.705,262.741 84.435 C 263.089 84.402,263.123 83.969,262.816 83.473 C 262.458 82.894,262.603 82.784,263.220 83.166 C 263.787 83.516,264.785 83.113,265.650 82.185 C 266.667 81.093,266.829 80.503,266.176 80.263 C 264.744 79.738,263.205 80.495,263.788 81.439 C 264.136 82.001,263.506 82.115,261.871 81.788 C 260.390 81.492,259.220 81.650,258.887 82.190 C 258.525 82.775,258.781 82.908,259.637 82.579 C 261.962 81.687,261.021 82.605,256.608 85.534 C 253.196 87.799,252.380 88.726,252.754 89.907 C 253.157 91.175,252.839 91.406,250.693 91.406 C 247.019 91.406,232.031 101.237,232.031 103.646 C 232.031 104.219,231.768 104.646,231.445 104.595 C 229.899 104.351,228.874 104.896,226.085 107.452 C 224.425 108.972,222.940 109.836,222.786 109.372 C 222.592 108.791,222.152 108.821,221.371 109.469 C 220.454 110.230,220.431 110.548,221.252 111.138 C 221.968 111.652,221.835 111.726,220.799 111.388 C 219.993 111.126,218.763 111.317,218.065 111.815 C 217.368 112.312,218.441 111.176,220.451 109.289 C 226.957 103.182,226.156 101.299,219.401 106.818 C 211.488 113.284,211.288 113.568,213.712 114.865 L 215.687 115.922 212.335 117.531 C 210.390 118.466,208.865 119.786,208.699 120.678 C 208.450 122.021,208.575 122.081,209.693 121.154 C 210.776 120.255,210.905 120.259,210.532 121.179 C 209.826 122.915,206.386 125.097,203.849 125.418 C 202.564 125.580,201.705 125.401,201.941 125.020 C 203.216 122.956,200.318 123.747,197.271 126.294 C 194.011 129.019,191.925 133.972,194.727 132.334 C 195.264 132.020,195.033 132.526,194.215 133.459 C 192.305 135.637,192.048 135.595,192.648 133.203 C 192.918 132.129,192.836 131.257,192.468 131.266 C 190.739 131.309,167.061 155.943,153.635 171.667 L 144.141 182.787 107.681 182.800 C 87.628 182.807,70.728 183.002,70.125 183.233 C 69.444 183.495,68.661 182.829,68.059 181.475 C 62.726 169.491,59.800 166.762,56.173 170.390 C 55.356 171.207,54.135 171.875,53.460 171.875 C 51.888 171.875,49.760 173.979,50.356 174.944 C 50.606 175.349,49.943 176.548,48.883 177.608 C 47.636 178.855,46.803 179.218,46.524 178.635 C 46.210 177.977,45.971 177.997,45.638 178.711 C 45.387 179.248,44.333 179.688,43.294 179.688 C 42.137 179.688,41.406 180.141,41.406 180.859 C 41.406 181.504,41.055 182.031,40.625 182.031 C 40.195 182.031,39.844 182.510,39.844 183.094 C 39.844 183.824,39.010 184.091,37.182 183.946 C 35.084 183.780,34.435 184.063,34.115 185.285 C 33.892 186.137,32.980 187.025,32.089 187.258 C 31.198 187.492,30.469 188.034,30.469 188.463 C 30.469 188.893,29.766 189.061,28.906 188.836 C 27.663 188.511,27.344 188.812,27.344 190.308 C 27.344 192.372,26.599 192.693,25.156 191.250 C 23.640 189.734,23.987 193.887,25.840 199.439 C 27.840 205.430,29.523 208.441,38.561 222.195 L 45.703 233.062 46.094 274.539 L 46.484 316.016 48.551 319.922 C 51.286 325.090,56.415 330.050,61.713 332.653 L 66.016 334.766 119.829 334.987 C 183.583 335.249,182.209 335.426,190.913 325.792 C 197.659 318.325,197.244 322.622,197.431 258.327 L 197.597 201.419 205.920 192.495 C 230.234 166.425,260.055 138.385,270.703 131.580 C 271.992 130.756,275.859 127.955,279.297 125.356 C 287.152 119.415,292.991 115.557,298.242 112.839 C 300.498 111.671,302.344 110.493,302.344 110.220 C 302.344 109.948,303.922 109.031,305.852 108.183 C 307.781 107.335,309.364 106.377,309.368 106.055 C 309.372 105.732,309.873 105.469,310.482 105.469 C 311.090 105.469,311.706 105.127,311.849 104.710 C 311.992 104.293,312.813 103.831,313.672 103.684 C 314.531 103.537,316.992 102.601,319.141 101.604 C 331.246 95.988,334.327 94.619,337.638 93.383 C 340.009 92.498,341.154 91.657,340.897 90.989 C 340.641 90.320,341.256 89.871,342.652 89.706 C 343.834 89.567,344.962 88.965,345.158 88.368 C 345.391 87.661,345.177 87.492,344.545 87.882 C 344.012 88.212,343.338 88.098,343.049 87.629 C 342.217 86.284,339.085 87.430,339.640 88.877 C 339.928 89.628,339.788 89.902,339.278 89.586 C 338.355 89.016,333.186 90.950,332.450 92.142 C 332.192 92.559,331.501 92.716,330.913 92.491 C 330.326 92.265,329.613 92.457,329.330 92.915 C 329.046 93.374,328.480 93.750,328.072 93.750 C 327.664 93.750,327.770 93.047,328.306 92.188 C 328.843 91.328,329.876 90.625,330.601 90.625 C 331.326 90.625,332.384 90.186,332.952 89.648 C 334.391 88.287,337.340 86.986,341.016 86.091 C 342.734 85.673,348.420 84.089,353.650 82.573 C 358.880 81.056,365.169 79.564,367.626 79.257 C 370.648 78.879,371.714 78.487,370.922 78.044 C 369.819 77.427,361.703 78.341,360.236 79.248 C 359.862 79.479,356.967 80.031,353.802 80.476 C 350.637 80.921,347.344 81.471,346.484 81.698 C 345.057 82.076,345.035 82.021,346.233 81.050 C 348.378 79.313,346.850 78.017,343.715 78.916 C 342.236 79.340,340.320 79.652,339.458 79.609 C 338.596 79.566,339.291 79.203,341.002 78.802 C 342.713 78.402,344.471 77.682,344.908 77.203 C 345.482 76.575,345.269 76.504,344.141 76.949 C 340.315 78.457,337.811 78.461,339.059 76.957 C 340.118 75.681,340.083 75.596,338.666 76.001 C 337.810 76.246,335.967 76.676,334.570 76.957 C 333.174 77.238,332.031 77.792,332.031 78.187 C 332.031 78.583,331.504 78.906,330.859 78.906 C 330.215 78.906,329.688 78.517,329.688 78.041 C 329.688 77.566,329.160 77.379,328.516 77.626 C 327.871 77.874,327.344 77.735,327.344 77.319 C 327.344 76.903,328.223 76.563,329.297 76.563 C 330.371 76.563,331.250 76.299,331.251 75.977 C 331.251 75.654,332.153 75.339,333.254 75.275 C 335.808 75.127,336.479 74.448,335.267 73.236 C 334.512 72.481,334.173 72.501,333.659 73.332 C 333.272 73.958,332.382 74.187,331.466 73.897 C 330.610 73.625,328.430 74.077,326.560 74.914 C 324.709 75.743,322.665 76.217,322.016 75.968 C 321.357 75.715,321.045 75.851,321.308 76.277 C 321.566 76.695,320.743 77.429,319.477 77.906 C 318.212 78.384,317.376 78.453,317.619 78.059 C 318.220 77.087,316.653 77.157,314.725 78.188 C 313.858 78.653,312.959 78.845,312.729 78.615 C 312.499 78.385,314.023 77.396,316.116 76.419 C 320.986 74.143,320.856 74.259,319.509 73.407 C 318.877 73.007,318.729 72.675,319.180 72.668 C 319.631 72.662,320.394 73.050,320.875 73.532 C 322.049 74.705,327.171 72.167,328.838 69.586 C 330.010 67.773,329.991 67.707,328.413 68.120 C 327.089 68.466,326.837 68.261,327.143 67.088 C 327.637 65.199,327.344 65.238,319.922 68.063 M288.395 72.279 C 286.602 74.169,286.596 74.219,288.172 74.219 C 289.061 74.219,290.153 73.539,290.598 72.708 C 292.227 69.662,291.087 69.440,288.395 72.279 M295.459 71.924 C 295.647 72.488,296.262 73.103,296.826 73.291 C 297.412 73.486,297.705 73.193,297.510 72.607 C 297.322 72.043,296.707 71.428,296.143 71.240 C 295.557 71.045,295.264 71.338,295.459 71.924 M292.317 73.033 C 289.719 74.465,288.201 76.178,290.138 75.492 C 290.944 75.207,292.043 75.337,292.578 75.781 C 293.633 76.656,296.094 76.051,296.094 74.916 C 296.094 74.533,295.577 74.219,294.946 74.219 C 294.247 74.219,293.975 73.761,294.249 73.047 C 294.767 71.696,294.744 71.696,292.317 73.033 M336.458 78.348 C 336.458 78.901,335.814 79.353,335.026 79.353 C 333.205 79.353,333.160 78.353,334.961 77.882 C 335.713 77.686,336.357 77.484,336.393 77.434 C 336.429 77.385,336.458 77.796,336.458 78.348 M353.125 78.906 C 353.125 79.336,354.004 79.688,355.078 79.688 C 356.152 79.688,357.031 79.336,357.031 78.906 C 357.031 78.477,356.152 78.125,355.078 78.125 C 354.004 78.125,353.125 78.477,353.125 78.906 M313.216 80.188 C 313.395 80.342,312.757 80.469,311.798 80.469 C 310.838 80.469,309.374 80.833,308.542 81.277 C 306.814 82.202,306.580 81.686,308.008 80.099 C 308.852 79.160,312.089 79.216,313.216 80.188 M342.922 81.629 C 341.944 82.606,341.288 82.605,337.891 81.619 C 334.934 80.761,334.670 80.582,336.805 80.883 C 338.357 81.101,340.466 80.963,341.493 80.575 C 343.805 79.701,344.408 80.146,342.922 81.629 M282.258 84.375 C 281.812 86.080,280.727 86.333,278.906 85.156 C 277.959 84.544,278.071 84.397,279.492 84.387 C 280.459 84.380,281.250 84.023,281.250 83.594 C 281.250 83.164,281.569 82.813,281.958 82.813 C 282.348 82.813,282.482 83.516,282.258 84.375 M332.043 84.785 C 331.985 85.204,331.261 85.797,330.434 86.103 C 329.101 86.596,329.039 86.485,329.889 85.125 C 330.852 83.582,332.240 83.364,332.043 84.785 M338.281 91.797 C 335.742 93.248,334.837 93.261,336.102 91.827 C 336.656 91.198,337.813 90.684,338.672 90.682 C 340.052 90.681,340.006 90.811,338.281 91.797 M230.817 97.757 C 228.692 99.506,226.820 101.303,226.656 101.749 C 226.214 102.961,227.568 102.048,233.503 97.137 C 234.627 96.207,235.352 95.250,235.114 95.011 C 234.876 94.773,232.943 96.008,230.817 97.757 M244.646 96.936 C 243.697 97.820,242.325 98.428,241.597 98.288 C 240.611 98.098,240.961 97.597,242.967 96.327 C 246.149 94.312,247.094 94.655,244.646 96.936 M206.055 118.446 C 201.897 122.385,201.750 122.656,203.785 122.656 C 205.203 122.656,208.727 119.548,207.348 119.514 C 206.959 119.504,207.478 118.853,208.502 118.066 C 209.525 117.278,210.228 116.251,210.064 115.783 C 209.900 115.315,208.096 116.513,206.055 118.446 M119.012 216.211 C 113.623 223.838,108.336 231.576,107.263 233.407 L 105.311 236.735 103.128 233.722 C 101.927 232.064,98.934 227.578,96.476 223.753 C 94.018 219.927,90.175 214.512,87.936 211.719 C 85.697 208.926,83.237 205.674,82.468 204.492 L 81.070 202.344 104.940 202.344 L 128.810 202.344 119.012 216.211 M177.936 310.747 C 175.219 316.282,178.155 315.992,122.558 316.228 C 57.820 316.503,64.721 320.002,65.027 287.056 L 65.234 264.705 74.377 277.126 C 90.563 299.116,98.203 304.043,111.739 301.220 C 122.872 298.899,127.988 294.033,143.000 271.484 C 152.675 256.951,158.583 248.793,169.457 234.953 L 178.516 223.422 178.718 266.083 C 178.874 299.122,178.698 309.195,177.936 310.747 " stroke="none" fill="#325d88" fill-rule="evenodd"></path></g></svg>